<?xml version="1.0" standalone="no"?><!DOCTYPE svg PUBLIC "-//W3C//DTD SVG 1.1//EN" "http://www.w3.org/Graphics/SVG/1.1/DTD/svg11.dtd"><svg t="1571723445453" class="icon" viewBox="0 0 1024 1024" version="1.1" xmlns="http://www.w3.org/2000/svg" p-id="2982" xmlns:xlink="http://www.w3.org/1999/xlink" width="128" height="128"><defs><style type="text/css"></style></defs><path d="M1024 0h-384" fill="#3296FA" p-id="2983"></path><path d="M128 341.333333h768c21.333333 0 42.666667-21.333333 42.666667-42.666666s-21.333333-42.666667-42.666667-42.666667H128c-21.333333 0-42.666667 21.333333-42.666667 42.666667s21.333333 42.666667 42.666667 42.666666zM896 469.333333H128c-21.333333 0-42.666667 21.333333-42.666667 42.666667s21.333333 42.666667 42.666667 42.666667h768c21.333333 0 42.666667-21.333333 42.666667-42.666667s-21.333333-42.666667-42.666667-42.666667zM896 682.666667H128c-21.333333 0-42.666667 21.333333-42.666667 42.666666s21.333333 42.666667 42.666667 42.666667h768c21.333333 0 42.666667-21.333333 42.666667-42.666667s-21.333333-42.666667-42.666667-42.666666z" fill="#3296FA" p-id="2984"></path></svg>