<?xml version="1.0" encoding="UTF-8"?>
<svg width="30px" height="36px" viewBox="0 0 30 36" version="1.1" xmlns="http://www.w3.org/2000/svg" xmlns:xlink="http://www.w3.org/1999/xlink">
    <!-- Generator: Sketch 55.2 (78181) - https://sketchapp.com -->
    <title>定位</title>
    <desc>Created with Sketch.</desc>
    <g id="页面1" stroke="none" stroke-width="1" fill="none" fill-rule="evenodd">
        <g id="空气质量" transform="translate(-703.000000, -68.000000)" fill-rule="nonzero">
            <g id="定位" transform="translate(698.000000, 66.000000)">
                <rect id="矩形" fill="#000000" opacity="0" x="0" y="0" width="40" height="40"></rect>
                <path d="M23.75,17.5 C23.75,15.4289322 22.0710678,13.75 20,13.75 C17.9289322,13.75 16.25,15.4289322 16.25,17.5 C16.25,19.5710678 17.9289322,21.25 20,21.25 C22.0710678,21.25 23.75,19.5710678 23.75,17.5 L23.75,17.5 Z M26.25,17.5 C26.25,20.9517797 23.4517797,23.75 20,23.75 C16.5482203,23.75 13.75,20.9517797 13.75,17.5 C13.75,14.0482203 16.5482203,11.25 20,11.25 C23.4517797,11.25 26.25,14.0482203 26.25,17.5 L26.25,17.5 Z M4.99998783,17.6125 C5.03500371,10.3422909 10.2786148,4.14384732 17.4424658,2.90433001 C24.6063169,1.6648127 31.627705,5.74111856 34.1033852,12.5769193 C36.5790655,19.4127201 33.7962101,27.0397691 27.5,30.675 L21.25,36.925 C20.9000826,37.2792151 20.4229061,37.4785763 19.925,37.4785763 C19.4270939,37.4785763 18.9499174,37.2792151 18.6,36.925 L12.05,30.4 C7.65644612,27.6343285 4.99341976,22.8040519 4.99998783,17.6125 Z M25.9875,28.6625 L26.1375,28.5875 C31.5171427,25.6271432 33.972125,19.2144645 31.9447086,13.4184443 C29.9172922,7.62242403 24.0004184,4.13817508 17.9484689,5.17652714 C11.8965194,6.2148792 7.47945644,11.4721543 7.49992864,17.6125 C7.49337912,21.9892015 9.76066422,26.0551679 13.4875,28.35 L13.6125,28.4375 L13.7125,28.5375 L19.9625,34.7875 L25.9875,28.6625 Z" id="形状" fill="#3296FA"></path>
            </g>
        </g>
    </g>
</svg>