<?xml version="1.0" encoding="UTF-8"?>
<svg width="18px" height="32px" viewBox="0 0 18 32" version="1.1" xmlns="http://www.w3.org/2000/svg" xmlns:xlink="http://www.w3.org/1999/xlink">
    <!-- Generator: Sketch 55.2 (78181) - https://sketchapp.com -->
    <title>右</title>
    <desc>Created with Sketch.</desc>
    <g id="页面1" stroke="none" stroke-width="1" fill="none" fill-rule="evenodd">
        <g id="空气质量" transform="translate(-691.000000, -435.000000)">
            <g id="编组" transform="translate(0.000000, 314.000000)">
                <g id="列表带分割线备份-2" transform="translate(0.000000, 80.000000)">
                    <g id="列表备份" transform="translate(0.000000, 1.000000)">
                        <g id="编组-2" transform="translate(682.000000, 38.000000)">
                            <g id="icon/右">
                                <g id="右">
                                    <rect id="矩形" fill="#000000" fill-rule="nonzero" opacity="0" x="0" y="0" width="36" height="36"></rect>
                                    <path d="M25.7238281,16.7027344 L13.0289062,2.840625 C12.3363281,2.08476563 11.165625,2.03554688 10.4132813,2.72460938 C9.65742188,3.4171875 9.60820313,4.58789063 10.2972656,5.34023438 L21.8496094,17.9542969 L10.3078125,30.6035156 C9.61875,31.359375 9.67148437,32.5300781 10.4273437,33.2191406 C11.1832031,33.9082031 12.3539062,33.8554688 13.0429687,33.0996094 L25.7167969,19.2164063 C25.7414062,19.1882813 25.7695312,19.1566406 25.790625,19.1285156 C26.3671875,18.4289063 26.3566406,17.3917969 25.7238281,16.7027344 Z" id="路径" fill="#3296FA" fill-rule="nonzero"></path>
                                </g>
                            </g>
                        </g>
                    </g>
                </g>
            </g>
        </g>
    </g>
</svg>