<?xml version="1.0" encoding="UTF-8"?>
<svg width="32px" height="32px" viewBox="0 0 32 32" version="1.1" xmlns="http://www.w3.org/2000/svg" xmlns:xlink="http://www.w3.org/1999/xlink">
    <!-- Generator: Sketch 55.2 (78181) - https://sketchapp.com -->
    <title>搜索</title>
    <desc>Created with Sketch.</desc>
    <g id="页面1" stroke="none" stroke-width="1" fill="none" fill-rule="evenodd">
        <g id="空气质量" transform="translate(-48.000000, -165.000000)" fill-rule="nonzero">
            <g id="标题栏/带搜索">
                <g id="标题">
                    <g id="搜索" transform="translate(48.000000, 165.000000)">
                        <rect id="矩形" fill="#000000" opacity="0" x="0" y="0" width="32" height="32"></rect>
                        <path d="M31.5656446,29.382012 L25.568576,23.4872752 C30.5657779,17.79507 30.2673102,9.30366422 24.769109,4.10819453 C19.1707079,-1.38574284 9.97363928,-1.38574284 4.27503834,4.20839441 C-1.32336272,9.60213191 -1.42356259,18.4922052 3.97657066,23.9861426 L4.27503834,24.2867422 C9.47263994,29.2818122 17.5717738,29.8808794 23.3684428,25.5872085 L29.3676433,31.4798135 C29.666111,31.7782812 30.0669104,31.9786809 30.465578,31.9786809 C30.8832295,31.9619476 31.2778854,31.7829758 31.5656446,31.4798135 C32.0666439,30.9788141 32.1668438,29.9810793 31.5656446,29.382012 L31.5656446,29.382012 Z M3.07690378,14.1985343 C3.17497175,8.00319788 8.27450538,3.01025981 14.5721736,3.01025981 C20.8698418,3.01025981 25.9672436,8.00319784 26.0674434,14.1985343 C25.9672435,20.4898068 20.7696419,25.4848768 14.5721736,25.3846769 C11.5614446,25.4359481 8.65470103,24.2838093 6.49666658,22.1838081 C4.33863212,20.0838068 3.10770341,17.2095423 3.07690378,14.1985343 L3.07690378,14.1985343 Z" id="形状" fill="#191F25" opacity="0.4"></path>
                    </g>
                </g>
            </g>
        </g>
    </g>
</svg>